<?xml version="1.0" encoding="UTF-8"?>
<svg id="Layer_1" data-name="Layer 1" xmlns="http://www.w3.org/2000/svg" viewBox="0 0 500 500">
  <circle cx="250" cy="250" r="250" style="fill: #fff;"/>
  <path d="M79.36,401.41h121.35c1.75,0,3.4-.82,4.46-2.22L425.84,108.32c2.8-3.69.17-8.99-4.46-8.99h-121.35c-1.75,0-3.4.82-4.46,2.22L74.89,392.42c-2.8,3.69-.17,8.99,4.46,8.99Z" style="fill: #d00;"/>
  <circle cx="120.16" cy="172.25" r="72.92"/>
  <circle cx="380.57" cy="328.5" r="72.92" style="fill: #fc0;"/>
  <path d="M138.43,150.75l-13.06,1.5c-.43-1.3-1.03-2.22-1.79-2.77s-1.78-.82-3.06-.82c-1.53,0-2.64.3-3.35.89-.71.59-1.06,1.35-1.06,2.26,0,.78.32,1.46.96,2.05,1.14,1.05,3.8,2.34,8,3.86,5.99,2.19,10.16,4.33,12.51,6.43,2.32,2.12,3.49,4.89,3.49,8.31,0,2.01-.44,3.84-1.33,5.49-.89,1.65-2.32,3.33-4.31,5.04,1.21,1.32,2.1,2.65,2.68,4s.87,2.88.87,4.61c0,2.37-.61,4.59-1.83,6.66-1.22,2.07-3.14,3.73-5.76,4.97-2.62,1.24-6.14,1.86-10.56,1.86-2.83,0-5.34-.24-7.54-.72s-4.01-1.14-5.43-1.98c-1.42-.84-2.6-1.82-3.52-2.92s-1.61-2.16-2.07-3.18c-.46-1.01-.87-2.39-1.23-4.12l12.85-1.34c.82,1.67,1.75,2.9,2.8,3.68,1.05.78,2.33,1.17,3.86,1.17s2.75-.37,3.54-1.09,1.18-1.63,1.18-2.7c0-.91-.47-1.84-1.4-2.77-1.3-1.28-4.78-3.04-10.44-5.28-5.66-2.25-9.44-4.48-11.33-6.69-1.89-2.21-2.84-4.56-2.84-7.05,0-1.96.51-3.77,1.52-5.42,1.01-1.65,2.75-3.35,5.21-5.08-1.16-1.28-2.01-2.53-2.53-3.76-.52-1.23-.79-2.61-.79-4.14,0-1.96.46-3.76,1.38-5.39s2.12-2.93,3.61-3.92c1.48-.98,2.98-1.69,4.51-2.12,2.07-.59,4.74-.89,8-.89,4.35,0,7.6.39,9.76,1.18s3.91,2,5.28,3.64,2.44,3.82,3.21,6.53ZM112.28,164.26c-1.19,1.57-1.78,2.84-1.78,3.8,0,.59.19,1.11.58,1.54.64.73,2.21,1.67,4.72,2.8l13.16,5.92c1.03-1.55,1.54-2.79,1.54-3.73,0-.75-.31-1.43-.92-2.02-.89-.87-3.52-2.21-7.9-4.02s-7.51-3.24-9.4-4.29Z" style="fill: #fc0;"/>
  <path d="M391.99,330.17l-1.48,6.22h-10.36c1.34,4.26,4.26,6.39,8.75,6.39,4.92,0,9.52-1.59,13.81-4.79v12.75c-3.55,2.44-7.85,3.66-12.89,3.66-8.13,0-14.15-1.86-18.05-5.57-3.9-3.71-6.28-7.86-7.14-12.44h-6.2l1.65-6.22h3.76c-.05-.34-.07-.95-.07-1.81,0-.91.02-1.57.07-1.98h-4.55l1.62-6.22h3.73c2.96-11.71,11.1-17.57,24.4-17.57,4.35,0,8.76,1.16,13.23,3.49l-3.08,12.41c-3.1-2.85-6.33-4.27-9.71-4.27-4.42,0-7.41,1.98-8.96,5.95h12.31l-1.48,6.22h-12.03c-.05.46-.07,1.12-.07,1.98v1.81h12.72Z"/>
  <g>
    <path d="M108.75,352.69l7.7-7.97,12.25,11.83-7.7,7.97,31.4,30.32-16.19,16.77-31.4-30.32-6.03,6.25-12.25-11.83,6.03-6.25-1.97-1.9c-1.78-1.72-3.56-3.8-5.32-6.25s-2.82-4.85-3.16-7.22c-.34-2.37,0-4.9,1-7.61,1-2.71,3.28-5.9,6.82-9.57,2.83-2.93,7.29-6.86,13.37-11.79l8.32,11.61c-2.26,1.68-3.98,3.14-5.18,4.37-1.46,1.51-2.25,2.83-2.38,3.98-.13,1.15.22,2.39,1.05,3.72.47.72,1.68,2.02,3.62,3.9Z" style="fill: #231f20;"/>
    <path d="M106.4,321.9l16.15-16.72,11.38,10.99-16.15,16.73-11.38-10.99ZM123,337.93l16.15-16.72,43.64,42.14-16.15,16.73-43.64-42.15Z" style="fill: #231f20;"/>
    <path d="M149.47,310.52l15.04-15.58,7.11,6.87c-.66-5.13-.46-9.49.6-13.08,1.05-3.59,3.23-7.09,6.54-10.52,4.47-4.63,9.35-6.92,14.63-6.88,5.28.04,10.8,2.84,16.55,8.4l27.74,26.79-16.23,16.81-24-23.18c-2.74-2.64-5.17-4.01-7.28-4.1-2.12-.08-4.06.79-5.83,2.63-1.96,2.03-2.78,4.41-2.46,7.15.32,2.74,2.46,6.03,6.44,9.87l20.96,20.24-16.15,16.73-43.64-42.15Z" style="fill: #231f20;"/>
    <path d="M232.54,252.79l-17.12,14.36c-2.21-3.3-3.57-6.29-4.08-8.98-.5-2.68-.31-5.67.57-8.94.63-2.35,2.01-5.1,4.14-8.23,2.13-3.13,4.7-6.26,7.71-9.39,4.84-5.01,9.01-8.77,12.51-11.27,3.5-2.5,7.12-3.9,10.86-4.21,2.61-.23,5.44.33,8.49,1.69,3.05,1.36,5.61,3.03,7.66,5.02l19.27,18.61c2.06,1.98,3.79,3.41,5.21,4.27,1.42.86,3.45,1.73,6.11,2.6l-15.16,15.7c-1.73-.45-2.98-.87-3.76-1.25-.77-.38-1.88-1.08-3.33-2.1,0,4.23-.6,7.86-1.79,10.9-1.65,4.12-4.37,8.14-8.15,12.06-5.03,5.21-10.05,7.99-15.06,8.36-5.02.37-9.29-1.15-12.83-4.56-3.32-3.2-5.1-6.81-5.36-10.82-.26-4.01,1.62-9.13,5.63-15.37,4.8-7.49,7.84-12.41,9.14-14.77,1.29-2.35,2.53-4.97,3.72-7.84-2.05-1.98-3.9-2.95-5.54-2.89-1.64.06-3.5,1.15-5.56,3.29-2.65,2.74-4.19,5.22-4.64,7.44-.35,1.73.11,3.84,1.36,6.32ZM255.34,246.78c-1.4,3.09-2.99,6.19-4.77,9.3-2.38,4.27-3.56,7.28-3.56,9.03,0,1.8.58,3.26,1.73,4.37,1.32,1.27,2.83,1.85,4.56,1.74,1.72-.11,3.44-1.06,5.16-2.84,1.8-1.86,3.02-4.03,3.66-6.51.64-2.47.64-4.68-.02-6.6-.65-1.93-2.02-3.9-4.1-5.91l-2.67-2.58Z" style="fill: #231f20;"/>
    <path d="M258.01,198.13l15.08-15.62,6.37,6.15c-.48-4.82-.18-8.91.91-12.29,1.09-3.38,3.2-6.68,6.32-9.92,3.36-3.48,6.64-5.65,9.84-6.49,3.19-.84,6.63-.73,10.32.34-.31-5.38.06-9.64,1.12-12.8,1.06-3.15,3.12-6.32,6.19-9.49,4.52-4.68,9.44-6.99,14.75-6.93,5.32.06,10.93,2.94,16.85,8.66l27.41,26.47-16.19,16.77-24.86-24.01c-1.97-1.9-3.81-2.94-5.5-3.1-2.59-.33-4.69.33-6.29,1.99-1.9,1.97-2.71,4.24-2.45,6.81.27,2.58,1.97,5.39,5.12,8.43l22.52,21.75-16.19,16.77-24.04-23.22c-1.92-1.85-3.33-3-4.22-3.44-1.44-.7-2.92-.93-4.44-.7-1.52.23-2.85.94-3.99,2.12-1.86,1.92-2.66,4.21-2.4,6.85.26,2.64,2.04,5.56,5.36,8.76l22.27,21.51-16.19,16.77-43.64-42.15Z" style="fill: #231f20;"/>
    <path d="M342.05,77.88l16.6,16.03,8.89-9.21,12.25,11.83-8.89,9.21,15.46,14.93c1.86,1.8,3.26,2.81,4.21,3.03,1.46.35,2.85-.16,4.17-1.53,1.19-1.23,2.5-3.3,3.93-6.21l12.74,9.92c-3.09,5.01-6.37,9.31-9.83,12.9-4.02,4.17-7.52,6.72-10.49,7.66-2.97.94-6,.84-9.09-.32-3.09-1.16-7.07-4.08-11.94-8.79l-15.35-14.82-5.95,6.16-12.25-11.83,5.95-6.16-8.01-7.74,7.6-25.06Z" style="fill: #231f20;"/>
  </g>
</svg>