<?xml version="1.0" encoding="UTF-8"?>
<svg id="Ebene_1" xmlns="http://www.w3.org/2000/svg" xmlns:x="http://ns.adobe.com/Extensibility/1.0/" version="1.1" viewBox="0 0 127.9 127.9">
  <!-- Generator: Adobe Illustrator 30.3.0, SVG Export Plug-In . SVG Version: 2.1.3 Build 182)  -->
  <defs>
    <style>
      .st0 {
        fill: #95c11f;
      }
    </style>
  </defs>
  <polygon class="st0" points="125 58.6 117.34 37.22 75.44 50.95 75.44 6.01 52.46 6.01 52.46 50.95 10.56 37.22 2.9 58.6 45.67 72.33 19.66 108.16 38.01 121.89 63.88 86.06 89.89 121.89 108.96 108.16 82.23 72.33 125 58.6"/>
  <polygon class="st0" points="125 58.6 117.34 37.22 75.44 50.95 75.44 6.01 52.46 6.01 52.46 50.95 10.56 37.22 2.9 58.6 45.67 72.33 19.66 108.16 38.01 121.89 63.88 86.06 89.89 121.89 108.96 108.16 82.23 72.33 125 58.6"/>
</svg>